<?xml version="1.0" standalone="no"?>
<!DOCTYPE svg PUBLIC "-//W3C//DTD SVG 20010904//EN"
 "http://www.w3.org/TR/2001/REC-SVG-20010904/DTD/svg10.dtd">
<svg version="1.0" xmlns="http://www.w3.org/2000/svg"
 width="370.000000pt" height="370.000000pt" viewBox="0 0 370.000000 370.000000"
 preserveAspectRatio="xMidYMid meet">
<metadata>
Created by potrace 1.14, written by Peter Selinger 2001-2017
</metadata>
<g transform="translate(0.000000,370.000000) scale(0.100000,-0.100000)"
fill="#000000" stroke="none">
<path d="M266 2193 c-3 -4 -13 -8 -21 -9 -33 -5 -107 -50 -143 -88 -37 -37
-80 -108 -91 -146 -7 -27 -10 -174 -3 -185 4 -5 7 -15 7 -20 0 -6 17 -40 38
-76 77 -132 236 -195 397 -157 67 16 210 135 210 175 0 7 5 13 10 13 6 0 9 3
8 8 -1 4 4 27 11 52 45 154 -48 345 -199 413 -45 20 -209 35 -224 20z m192
-171 l3 -62 59 0 c67 0 63 7 62 -98 l0 -63 -100 -100 c-54 -54 -103 -99 -108
-99 -6 0 -29 20 -53 43 l-42 44 88 87 c99 99 118 113 127 91 7 -20 -82 -125
-106 -125 -6 0 -9 -3 -5 -6 3 -4 -4 -14 -16 -24 -18 -15 -19 -20 -8 -34 12
-14 22 -7 95 64 85 84 86 87 77 166 0 6 -19 9 -44 7 -40 -3 -51 -11 -141 -100
-88 -88 -98 -95 -113 -81 -14 15 -7 25 84 116 103 104 101 101 94 178 -1 8
-18 11 -47 9 -43 -3 -52 -9 -125 -83 -69 -68 -77 -81 -64 -92 13 -11 27 -1 91
63 71 71 104 87 104 52 0 -16 -169 -185 -185 -185 -6 0 -30 19 -52 43 l-41 43
100 100 c106 104 116 109 208 109 l55 -1 3 -62z"/>
<path d="M928 2002 c-21 -2 -28 -9 -29 -25 -4 -75 0 -269 5 -274 8 -8 113 -8
158 1 61 11 87 88 45 134 l-20 22 21 23 c12 13 20 26 17 28 -2 3 -6 14 -8 25
-7 36 -19 54 -36 54 -10 0 -20 3 -24 6 -7 7 -87 11 -129 6z m122 -73 c8 -14 7
-24 -2 -37 -15 -20 -38 -27 -38 -11 0 8 -4 8 -12 1 -28 -22 -47 5 -39 56 0 4
19 8 41 9 30 1 43 -3 50 -18z m10 -114 c15 -9 12 -34 -5 -51 -10 -10 -29 -14
-57 -12 -38 3 -43 6 -44 28 -1 39 13 49 57 45 22 -2 44 -7 49 -10z"/>
<path d="M1193 2002 c-26 -4 -25 3 -25 -171 0 -132 8 -153 46 -128 16 11 19
25 18 103 l-2 89 42 -82 c44 -86 61 -98 91 -65 18 20 62 113 59 125 -1 4 4 7
11 7 9 0 12 -16 10 -57 -6 -118 -4 -125 32 -121 l30 3 0 145 0 145 -39 0 c-39
0 -39 0 -80 -82 -23 -46 -47 -83 -53 -83 -7 0 -12 3 -11 8 5 14 -77 161 -92
164 -8 2 -25 2 -37 0z"/>
<path d="M1556 1991 c-3 -9 -5 -75 -5 -147 1 -127 2 -132 24 -142 13 -6 26 -8
29 -5 3 4 6 73 6 154 l0 147 -25 4 c-17 4 -26 0 -29 -11z"/>
<path d="M2099 2000 c-101 -28 -146 -150 -86 -237 23 -33 83 -67 121 -67 59 1
117 37 145 92 27 52 11 138 -31 170 -9 7 -23 18 -30 26 -7 7 -20 13 -28 14 -8
0 -26 3 -40 5 -14 2 -37 0 -51 -3z m82 -62 c31 -14 51 -48 54 -91 1 -21 -8
-39 -32 -63 -42 -43 -80 -45 -125 -5 -83 74 1 204 103 159z"/>
<path d="M2517 2002 c-13 -3 -16 -9 -11 -25 4 -12 10 -24 13 -27 4 -3 25 -34
46 -69 31 -52 39 -75 40 -119 2 -55 18 -80 41 -62 6 6 13 8 15 5 3 -2 4 19 3
48 -1 41 5 64 29 107 17 30 33 57 36 60 11 9 33 52 36 69 2 14 -3 16 -25 13
-20 -3 -37 -16 -54 -43 -14 -21 -26 -41 -26 -44 0 -4 -6 -13 -14 -20 -16 -17
-19 -14 -59 56 -28 49 -40 58 -70 51z"/>
<path d="M3095 1999 c-3 -4 -11 -6 -18 -3 -8 3 -30 -31 -58 -87 l-45 -91 -46
88 c-48 93 -61 103 -115 89 -17 -4 -22 -10 -16 -18 7 -10 8 -66 3 -177 -3 -50
7 -95 20 -95 8 0 20 -4 27 -8 16 -10 23 20 22 98 -2 100 -1 104 16 75 8 -14
14 -33 15 -42 0 -10 4 -18 9 -18 5 0 11 -10 15 -22 7 -30 8 -31 22 -45 26 -26
64 -5 73 42 1 6 10 18 19 29 9 10 16 21 15 25 0 3 5 17 13 31 13 23 14 20 13
-45 -2 -110 0 -122 16 -129 9 -3 23 2 33 12 16 16 19 70 13 268 -1 22 -36 40
-46 23z"/>
<path d="M3335 2001 c-3 -2 -30 -3 -60 -2 -94 4 -90 11 -88 -146 0 -76 2 -141
2 -144 1 -10 71 -16 77 -7 3 4 15 4 27 0 12 -4 42 -5 67 -2 37 4 46 9 48 28 4
24 6 23 -103 26 -59 1 -60 2 -59 29 3 49 3 50 19 37 11 -9 15 -9 15 -1 0 8 6
9 18 3 9 -4 33 -6 52 -3 29 5 35 10 35 31 0 24 -2 25 -69 25 -69 0 -70 0 -71
28 -2 38 10 44 85 43 65 -1 80 5 80 35 0 12 -11 18 -35 21 -20 2 -38 2 -40 -1z"/>
<path d="M1735 1853 l0 -148 30 0 c28 0 30 2 30 40 l0 40 63 6 c71 7 97 25
112 77 23 83 -37 132 -162 132 l-73 0 0 -147z m156 82 c22 -14 29 -50 13 -73
-10 -14 -24 -19 -61 -18 l-48 1 -1 51 -1 51 41 -1 c23 -1 48 -6 57 -11z"/>
<path d="M2339 1998 c-8 -15 -4 -290 4 -295 5 -3 52 -6 104 -7 91 -1 94 0 100
23 7 30 -6 38 -64 34 -96 -5 -94 -9 -91 125 l2 117 -27 3 c-15 2 -28 2 -28 0z"/>
<path d="M3448 1988 c-3 -11 -2 -218 1 -269 1 -20 37 -31 49 -15 6 6 8 28 7
49 -3 36 0 40 30 40 28 0 32 -3 64 -48 18 -25 37 -43 42 -40 5 4 9 1 9 -5 0
-7 6 -8 19 -1 10 6 22 7 26 3 5 -4 -5 11 -21 33 -16 22 -33 43 -38 47 -5 3 3
20 17 38 15 17 27 35 28 38 0 4 2 16 4 27 7 36 -17 84 -51 100 -40 19 -180 21
-186 3z m161 -52 c27 -33 14 -84 -22 -87 -63 -6 -77 -4 -78 11 -4 51 -4 76 -1
83 6 13 89 8 101 -7z"/>
</g>
</svg>
